<svg width="2488" height="1468" viewBox="0 0 2488 1468" fill="none" xmlns="http://www.w3.org/2000/svg">
<g clip-path="url(#clip0_536_784)">
<rect width="2488" height="1468" fill="white"/>
<path d="M2215 1159L2441.5 943.36V1374.64L2215 1159Z" fill="#02375F"/>
<path d="M1618 1016L1865.5 780.441V1251.56L1618 1016Z" fill="#02375F"/>
<path d="M2263.4 1261.33L2490.4 1045.86L2489.7 1477.54L2263.4 1261.33Z" fill="#D3D5D4"/>
<path d="M1643.74 883.613L1780 754.265L1779.58 1013.4L1643.74 883.613Z" fill="#D3D5D4"/>
<path d="M2082 1049L1792.5 1249.92V848.082L2082 1049Z" fill="#FDD306"/>
<path d="M1232.01 112.797L1369.61 254.214L1097.57 257.211L1232.01 112.797Z" fill="#02375F"/>
<path d="M1308.62 126.816L1384.18 204.677L1234.54 206.083L1308.62 126.816Z" fill="#D3D5D4"/>
<path d="M1232.8 175.552L1183.67 124.803L1281.19 124.09L1232.8 175.552Z" fill="white"/>
<path d="M1154.28 253.692L1106.44 186.361L1200.62 185.324L1154.28 253.692Z" fill="#FDD306"/>
<path d="M177 248.5L0 416.942V80.0581L177 248.5Z" fill="#02375F"/>
<path d="M203.226 216.658L330.424 95.9164L330.031 337.81L203.226 216.658Z" fill="#D3D5D4"/>
<path d="M533 263.5L338 399.033V127.967L533 263.5Z" fill="#FDD306"/>
<path d="M1096.08 1271.74L966.417 1389.83L971.805 1147.99L1096.08 1271.74Z" fill="#D3D5D4"/>
<path d="M767.345 1218.1L965.102 1086.62L959.504 1357.63L767.345 1218.1Z" fill="#FDD306"/>
<path d="M177 165.5L0 333.942V-2.94194L177 165.5Z" fill="#D3D5D4"/>
<path d="M415 762L648.25 540.297V983.702L415 762Z" fill="#FDD306"/>
<path d="M439.239 636.907L567.575 515.086L567.179 759.144L439.239 636.907Z" fill="#D3D5D4"/>
<path d="M852 792.5L579.75 981.727V603.273L852 792.5Z" fill="#003863"/>
<path d="M1069.26 780.511L1217.27 640.012L1216.82 921.489L1069.26 780.511Z" fill="#D3D5D4"/>
<path d="M1453 834.77L1225.75 992.386V677.153L1453 834.77Z" fill="#FDD306"/>
</g>
<defs>
<clipPath id="clip0_536_784">
<rect width="2488" height="1468" fill="white"/>
</clipPath>
</defs>
</svg>
